<?xml version="1.0" encoding="UTF-8"?>
<svg id="Capa_1" xmlns="http://www.w3.org/2000/svg" version="1.1" viewBox="0 0 180 180">
  <!-- Generator: Adobe Illustrator 29.5.1, SVG Export Plug-In . SVG Version: 2.1.0 Build 141)  -->
  <defs>
    <style>
      .st0 {
        fill: #fff;
      }
    </style>
  </defs>
  <path class="st0" d="M90-.02h0C40.28-.02-.02,40.28-.02,90H-.02C-.02,139.72,40.28,180.02,90,180.02h0c49.72,0,90.02-40.3,90.02-90.02h0C180.02,40.28,139.72-.02,90-.02ZM67.78,130.77c0,.48-.39.86-.86.86h-17.6c-.48,0-.86-.39-.86-.86v-56.25c0-.48.39-.86.86-.86h17.6c.48,0,.86.39.86.86v56.25ZM58.11,65.93c-6.4,0-11.59-5.19-11.59-11.59s5.19-11.59,11.59-11.59,11.59,5.19,11.59,11.59-5.19,11.59-11.59,11.59ZM133.48,127.77c0,2.13-1.74,3.86-3.86,3.86h-11.59c-2.13,0-3.86-1.74-3.86-3.86v-27.05c0-5.33-4.33-9.66-9.66-9.66s-9.66,4.33-9.66,9.66v27.05c0,2.13-1.74,3.86-3.86,3.86h-11.59c-2.13,0-3.86-1.74-3.86-3.86v-50.24c0-2.13,1.74-3.86,3.86-3.86h11.59c2.13,0,3.86,1.74,3.86,3.86v2.47c3.86-5,10.26-8.27,17.39-8.27,10.67,0,21.26,7.73,21.26,23.19v32.85Z"/>
</svg>