<?xml version="1.0" encoding="UTF-8"?>
<svg id="Capa_1" xmlns="http://www.w3.org/2000/svg" version="1.1" viewBox="0 0 180 180">
  <!-- Generator: Adobe Illustrator 29.5.1, SVG Export Plug-In . SVG Version: 2.1.0 Build 141)  -->
  <defs>
    <style>
      .st0 {
        fill: #fff;
      }
    </style>
  </defs>
  <path class="st0" d="M90-.02h0C40.28-.02-.02,40.28-.02,90H-.02C-.02,139.72,40.28,180.02,90,180.02h0c49.72,0,90.02-40.3,90.02-90.02h0C180.02,40.28,139.72-.02,90-.02ZM116.67,83.02l-1.5,12.04c-.25,2.01-1.96,3.53-3.98,3.53h-19.51v50.35c-2.06.19-4.14.28-6.25.28-4.71,0-9.31-.47-13.76-1.37v-49.27h-15c-1.38,0-2.5-1.13-2.5-2.51v-15.07c0-1.38,1.12-2.51,2.5-2.51h15v-22.6c0-13.87,11.2-25.11,25.01-25.11h17.5c1.38,0,2.5,1.13,2.5,2.51v15.07c0,1.38-1.12,2.51-2.5,2.51h-12.51c-5.52,0-10,4.5-10,10.05v17.58h21.01c2.41,0,4.27,2.12,3.98,4.52Z"/>
</svg>