<?xml version="1.0" encoding="UTF-8"?>
<svg id="Capa_1" xmlns="http://www.w3.org/2000/svg" version="1.1" viewBox="0 0 180 180">
  <!-- Generator: Adobe Illustrator 29.5.1, SVG Export Plug-In . SVG Version: 2.1.0 Build 141)  -->
  <defs>
    <style>
      .st0 {
        fill: #fff;
      }
    </style>
  </defs>
  <path class="st0" d="M112.8,50.92h-45.59c-8.99,0-16.28,7.29-16.28,16.28v45.59c0,8.99,7.29,16.28,16.28,16.28h45.59c8.99,0,16.28-7.29,16.28-16.28v-45.59c0-8.99-7.29-16.28-16.28-16.28ZM90.05,114.42c-13.48,0-24.42-10.94-24.42-24.42s10.94-24.42,24.42-24.42,24.42,10.94,24.42,24.42-10.94,24.42-24.42,24.42ZM116.1,68.83c-2.69,0-4.88-2.19-4.88-4.88s2.19-4.88,4.88-4.88,4.88,2.19,4.88,4.88-2.19,4.88-4.88,4.88Z"/>
  <path class="st0" d="M90.05,73.72c-8.97,0-16.28,7.31-16.28,16.28s7.31,16.28,16.28,16.28,16.28-7.31,16.28-16.28-7.31-16.28-16.28-16.28Z"/>
  <path class="st0" d="M90-.02h0C40.28-.02-.02,40.28-.02,90H-.02C-.02,139.72,40.28,180.02,90,180.02h0c49.72,0,90.02-40.3,90.02-90.02h0C180.02,40.28,139.72-.02,90-.02ZM137.22,114.42c0,12.59-10.21,22.8-22.8,22.8h-48.85c-12.59,0-22.8-10.21-22.8-22.8v-48.85c0-12.59,10.21-22.8,22.8-22.8h48.85c12.59,0,22.8,10.21,22.8,22.8v48.85Z"/>
</svg>